<svg xmlns="http://www.w3.org/2000/svg" width="182" height="50" viewBox="0 0 182 50" fill="none"><defs><clipPath id="c_logo"><rect width="180" height="47.1204" fill="white" transform="translate(1 1.4397)"/></clipPath></defs><g clip-path="url(#c_logo)"><path d="M51.4242 36.4171C50.3805 35.8798 49.6115 35.1813 49.0073 34.2679C48.458 33.3545 48.1285 32.2799 48.1285 31.0979V30.0771C48.1285 29.9696 48.1834 29.8621 48.2383 29.8084C48.2932 29.7547 48.4031 29.7009 48.513 29.7009H53.1819C53.2917 29.7009 53.4016 29.7547 53.4565 29.8084C53.5114 29.8621 53.5664 29.9696 53.5664 30.0771V30.8293C53.5664 31.3666 53.6762 31.7964 53.9509 32.065C54.2255 32.3874 54.5551 32.5486 54.9396 32.5486C55.3241 32.5486 55.6536 32.3874 55.9283 32.1188C56.2029 31.8501 56.3128 31.4203 56.3128 30.9904C56.3128 30.5069 56.0931 30.0233 55.7086 29.6472C55.3241 29.2174 54.5001 28.6264 53.2917 27.7667C52.1932 26.9608 51.2594 26.2623 50.5453 25.6713C49.8312 25.0265 49.227 24.2743 48.6777 23.3609C48.1285 22.4475 47.9088 21.3729 47.9088 20.1372C47.9088 18.9014 48.1834 17.7731 48.7876 16.806C49.3369 15.8388 50.1608 15.0866 51.2044 14.5493C52.2481 14.0121 53.4565 13.7434 54.7748 13.7434C56.148 13.7434 57.3564 14.0121 58.4001 14.5493C59.4437 15.0866 60.2676 15.8388 60.8169 16.806C61.3662 17.7731 61.6957 18.9014 61.6957 20.1909V20.9968C61.6957 21.1043 61.6408 21.2118 61.5859 21.2655C61.531 21.3192 61.4211 21.3729 61.3113 21.3729H56.6423C56.5325 21.3729 56.4226 21.3192 56.3677 21.2655C56.3128 21.2118 56.2578 21.1043 56.2578 20.9968V20.0834C56.2578 19.5999 56.148 19.2238 55.8734 18.9014C55.5987 18.579 55.2691 18.4178 54.8846 18.4178C54.5001 18.4178 54.1706 18.579 53.8959 18.9014C53.6762 19.2238 53.5114 19.5999 53.5114 20.1372C53.5114 20.6745 53.6762 21.158 54.0607 21.5879C54.4452 22.0177 55.2142 22.6624 56.3677 23.4684C57.7958 24.4892 58.8395 25.3489 59.5535 25.9399C60.2676 26.5847 60.8169 27.2831 61.2563 28.0353C61.6408 28.7876 61.8605 29.7009 61.8605 30.7755C61.8605 32.7635 61.2014 34.3217 59.938 35.45C58.6747 36.632 57.0268 37.1693 54.9396 37.1693C53.6762 37.223 52.4678 36.9544 51.4242 36.4171Z" fill="#007AFF"/><path d="M64.2225 36.8471C64.1675 36.7933 64.1126 36.6859 64.1126 36.5784V14.3883C64.1126 14.2809 64.1675 14.1734 64.2225 14.1197C64.2774 14.0659 64.3872 14.0122 64.4971 14.0122H69.2759C69.3857 14.0122 69.4956 14.0659 69.5505 14.1197C69.6054 14.1734 69.6604 14.2809 69.6604 14.3883V36.5784C69.6604 36.6859 69.6054 36.7933 69.5505 36.8471C69.4956 36.9008 69.3857 36.9545 69.2759 36.9545H64.4971C64.3872 36.9545 64.2774 36.9008 64.2225 36.8471Z" fill="#007AFF"/><path d="M72.7913 17.6657C72.242 17.1284 71.9673 16.4299 71.9673 15.624C71.9673 14.7643 72.242 14.0659 72.7913 13.5823C73.3406 13.045 73.9997 12.7764 74.8785 12.7764C75.7025 12.7764 76.4165 13.045 76.9658 13.5823C77.5151 14.1196 77.7897 14.8181 77.7897 15.624C77.7897 16.4299 77.5151 17.1284 76.9658 17.6657C76.4165 18.203 75.7025 18.4717 74.8785 18.4717C73.9997 18.4717 73.3406 18.203 72.7913 17.6657ZM72.242 36.847C72.1871 36.7933 72.1321 36.6858 72.1321 36.5784V20.3522C72.1321 20.2447 72.1871 20.1373 72.242 20.0835C72.2969 20.0298 72.4068 19.9761 72.5166 19.9761H77.2954C77.4052 19.9761 77.5151 20.0298 77.57 20.0835C77.625 20.1373 77.6799 20.2447 77.6799 20.3522V36.5246C77.6799 36.6321 77.625 36.7395 77.57 36.7933C77.5151 36.847 77.4052 36.9007 77.2954 36.9007H72.5166C72.4068 36.9545 72.3518 36.9007 72.242 36.847Z" fill="#12D89B"/><path d="M88.0613 14.066C88.1163 14.0122 88.2261 13.9585 88.336 13.9585H93.1147C93.2246 13.9585 93.3344 14.0122 93.3894 14.066C93.4443 14.1197 93.4992 14.2271 93.4992 14.3346V36.5247C93.4992 36.6322 93.4443 36.7396 93.3894 36.7934C93.3344 36.8471 93.2246 36.9008 93.1147 36.9008H88.336C88.2261 36.9008 88.1163 36.8471 88.0613 36.7934C88.0064 36.7396 87.9515 36.6322 87.9515 36.5247V35.88C87.9515 35.8262 87.9515 35.7725 87.8966 35.7725C87.8416 35.7725 87.7867 35.7725 87.7867 35.8262C87.0726 36.7396 86.029 37.2232 84.7107 37.2232C81.6347 37.2232 80.0967 35.3427 80.0967 31.5279V25.4028C80.0967 21.6418 81.6347 19.7075 84.7107 19.7075C86.029 19.7075 87.0177 20.1911 87.7867 21.1582C87.8416 21.2119 87.8966 21.2657 87.8966 21.2657C87.9515 21.2657 87.9515 21.2119 87.9515 21.1582V14.3883C87.9515 14.2809 87.9515 14.1734 88.0613 14.066ZM87.6219 32.1727C87.8416 31.904 87.9515 31.5816 87.9515 31.0981V25.8326C87.9515 25.4028 87.8416 25.0267 87.6219 24.758C87.4022 24.4894 87.1276 24.3819 86.7431 24.3819C86.4135 24.3819 86.1389 24.4894 85.9191 24.758C85.6994 25.0267 85.6445 25.3491 85.6445 25.8326V31.0981C85.6445 31.5279 85.7544 31.904 85.9191 32.1727C86.1389 32.4413 86.4135 32.5488 86.7431 32.5488C87.1276 32.5488 87.4022 32.4413 87.6219 32.1727Z" fill="#007AFF"/><path d="M109.264 29.8623C109.209 29.916 109.099 29.9698 108.989 29.9698H101.684C101.574 29.9698 101.519 30.0235 101.519 30.131V31.0981C101.519 31.5279 101.629 31.904 101.848 32.1727C102.068 32.4413 102.343 32.5488 102.727 32.5488C103.057 32.5488 103.276 32.4413 103.496 32.2264C103.716 32.0115 103.826 31.7428 103.881 31.4205C103.881 31.2055 104.045 31.0444 104.32 31.0444L108.934 31.313C109.044 31.313 109.154 31.3667 109.209 31.4205C109.264 31.4742 109.319 31.5816 109.319 31.7428C109.099 35.3964 106.902 37.2232 102.727 37.2232C100.585 37.2232 98.9371 36.7396 97.7836 35.7188C96.5752 34.6979 96.0259 33.3547 96.0259 31.5279V25.4028C96.0259 23.6835 96.6302 22.3402 97.8386 21.2657C99.047 20.2448 100.695 19.7075 102.782 19.7075C104.869 19.7075 106.517 20.2448 107.726 21.2657C108.934 22.2865 109.483 23.6835 109.483 25.4028V29.5937C109.374 29.6474 109.319 29.7549 109.264 29.8623ZM101.793 24.7581C101.574 25.0267 101.464 25.3491 101.464 25.8326V26.8535C101.464 26.9609 101.519 27.0147 101.629 27.0147H103.606C103.716 27.0147 103.771 26.9609 103.771 26.8535V25.8326C103.771 25.4028 103.661 25.0804 103.441 24.8118C103.222 24.5431 102.947 24.3819 102.617 24.3819C102.288 24.3819 102.013 24.4894 101.793 24.7581Z" fill="#007AFF"/><path d="M113.109 35.7725C111.9 34.8054 111.296 33.5696 111.296 32.0115V31.7966C111.296 31.6891 111.351 31.5817 111.406 31.5279C111.461 31.4742 111.571 31.4205 111.68 31.4205H116.185C116.294 31.4205 116.404 31.4742 116.459 31.5279C116.514 31.5817 116.569 31.6891 116.569 31.7966V31.8503C116.569 32.2264 116.734 32.5488 117.008 32.7637C117.283 32.9786 117.613 33.0861 117.942 33.0861C118.272 33.0861 118.492 32.9786 118.656 32.8174C118.821 32.6562 118.931 32.3876 118.931 32.119C118.931 31.7429 118.766 31.4205 118.382 31.2056C117.997 30.9906 117.393 30.7757 116.569 30.5071L115.855 30.2922C112.944 29.325 111.516 27.6057 111.516 25.0267C111.516 23.3611 112.065 22.0716 113.218 21.1045C114.372 20.1374 115.855 19.6538 117.778 19.6538C119.7 19.6538 121.293 20.1911 122.446 21.212C123.6 22.2328 124.204 23.6298 124.204 25.3491C124.204 25.564 124.094 25.7252 123.82 25.7252H119.48C119.37 25.7252 119.261 25.6715 119.206 25.6177C119.151 25.564 119.096 25.4565 119.096 25.3491V25.0804C119.096 24.7043 118.986 24.4357 118.821 24.2208C118.601 24.0059 118.327 23.8984 117.997 23.8984C117.668 23.8984 117.393 24.0059 117.228 24.2208C117.063 24.4357 116.954 24.7043 116.954 25.0267C116.954 25.5103 117.173 25.8864 117.613 26.155C118.052 26.4237 118.711 26.6923 119.48 26.961C120.469 27.2833 121.293 27.6594 122.007 27.9818C122.721 28.3579 123.325 28.8415 123.875 29.54C124.369 30.1847 124.644 31.0444 124.644 32.0652C124.644 33.6234 124.039 34.8591 122.831 35.7725C121.622 36.6859 120.03 37.1158 118.052 37.1158C115.965 37.2232 114.317 36.7397 113.109 35.7725Z" fill="#007AFF"/><path d="M135.355 14.066C135.41 14.0122 135.519 13.9585 135.629 13.9585H138.705C138.815 13.9585 138.925 14.0122 138.98 14.066C139.035 14.1197 139.09 14.2271 139.09 14.3346V36.5247C139.09 36.6322 139.035 36.7396 138.98 36.7934C138.925 36.8471 138.815 36.9008 138.705 36.9008H135.629C135.519 36.9008 135.41 36.8471 135.355 36.7934C135.3 36.7396 135.245 36.6322 135.245 36.5247V36.1486C135.245 36.0949 135.245 36.0412 135.19 36.0412C135.135 36.0412 135.08 36.0412 135.08 36.0949C134.256 36.8471 133.267 37.2232 132.059 37.2232C130.576 37.2232 129.422 36.7396 128.544 35.7725C127.72 34.8054 127.28 33.5159 127.28 31.904V25.2416C127.28 23.576 127.72 22.2865 128.544 21.3194C129.367 20.3523 130.521 19.9224 132.004 19.9224C132.498 19.9224 133.048 20.0299 133.597 20.1911C134.146 20.3523 134.641 20.6746 135.025 21.1045C135.08 21.1582 135.135 21.1582 135.135 21.1582C135.19 21.1582 135.19 21.1045 135.19 21.0507V14.3883C135.245 14.2809 135.3 14.1734 135.355 14.066ZM134.586 33.4084C134.97 33.0861 135.19 32.6025 135.245 32.0652V25.0804C135.135 24.4894 134.915 24.0596 134.586 23.7372C134.201 23.4148 133.762 23.2536 133.267 23.2536C132.663 23.2536 132.114 23.4685 131.784 23.8984C131.455 24.3282 131.235 24.8655 131.235 25.564V31.6354C131.235 32.3338 131.4 32.9249 131.784 33.301C132.169 33.6771 132.663 33.9457 133.267 33.9457C133.762 33.9457 134.256 33.7845 134.586 33.4084Z" fill="#384249"/><path d="M143.209 35.7724C142.166 34.8053 141.616 33.5158 141.616 31.8502V25.2415C141.616 23.6297 142.166 22.3402 143.209 21.373C144.308 20.4059 145.736 19.9224 147.549 19.9224C149.416 19.9224 150.844 20.4059 151.943 21.373C153.042 22.3402 153.536 23.6297 153.536 25.2415V31.8502C153.536 33.5158 152.987 34.8053 151.943 35.7724C150.899 36.7396 149.416 37.2231 147.549 37.2231C145.736 37.2231 144.308 36.7396 143.209 35.7724ZM149.142 33.2472C149.526 32.8173 149.746 32.2801 149.746 31.5816V25.5102C149.746 24.8117 149.526 24.2744 149.142 23.8446C148.757 23.4148 148.263 23.1998 147.604 23.1998C146.944 23.1998 146.45 23.4148 146.121 23.8446C145.736 24.2744 145.571 24.8117 145.571 25.5102V31.5278C145.571 32.2263 145.736 32.8173 146.121 33.1934C146.505 33.6233 146.999 33.8382 147.604 33.8382C148.208 33.8382 148.757 33.677 149.142 33.2472Z" fill="#384249"/><path d="M157.381 35.7724C156.337 34.8053 155.788 33.5158 155.788 31.8502V25.2415C155.788 23.6297 156.337 22.3402 157.381 21.373C158.424 20.4059 159.908 19.9224 161.72 19.9224C163.533 19.9224 165.016 20.4059 166.06 21.373C167.158 22.3402 167.652 23.5222 167.652 24.9729V25.4565C167.652 25.5639 167.598 25.6714 167.543 25.7251C167.488 25.7788 167.378 25.8326 167.268 25.8326L164.192 25.94C163.917 25.94 163.807 25.8326 163.807 25.5639V25.2415C163.807 24.7043 163.588 24.2207 163.203 23.7909C162.819 23.361 162.324 23.1998 161.72 23.1998C161.116 23.1998 160.622 23.4148 160.237 23.8446C159.853 24.2744 159.688 24.8654 159.688 25.5102V31.5816C159.688 32.2801 159.853 32.8173 160.237 33.2472C160.622 33.677 161.116 33.8919 161.72 33.8919C162.324 33.8919 162.819 33.677 163.203 33.3009C163.588 32.8711 163.807 32.3875 163.807 31.8502V31.5278C163.807 31.4204 163.862 31.3129 163.917 31.2592C163.972 31.2055 164.082 31.1517 164.192 31.1517L167.268 31.2055C167.378 31.2055 167.488 31.2592 167.543 31.3129C167.598 31.3667 167.652 31.4741 167.652 31.5816V32.1726C167.652 33.677 167.103 34.9128 166.06 35.8262C164.961 36.7396 163.533 37.2231 161.72 37.2231C159.908 37.2231 158.424 36.7396 157.381 35.7724Z" fill="#384249"/><path d="M170.893 35.8799C169.85 35.0739 169.3 33.9456 169.3 32.495V32.28C169.3 32.1726 169.355 32.0651 169.41 32.0114C169.465 31.9577 169.575 31.9039 169.685 31.9039H172.596C172.706 31.9039 172.816 31.9577 172.871 32.0114C172.926 32.0651 172.98 32.1726 172.98 32.28V32.4412C172.98 32.9785 173.2 33.4083 173.585 33.7307C173.969 34.0531 174.518 34.268 175.123 34.268C175.727 34.268 176.166 34.1068 176.496 33.7845C176.825 33.4621 176.99 33.0322 176.99 32.5487C176.99 32.1189 176.825 31.7427 176.551 31.4741C176.276 31.2055 175.947 30.9368 175.617 30.7756C175.287 30.6144 174.683 30.3458 173.804 30.0234C172.541 29.5399 171.497 28.9488 170.674 28.1966C169.85 27.4444 169.465 26.3698 169.465 24.8654C169.465 23.361 169.959 22.1252 170.948 21.2656C171.937 20.4059 173.31 19.9761 175.013 19.9761C176.771 19.9761 178.144 20.4059 179.132 21.3193C180.176 22.2327 180.67 23.4685 180.67 24.9729C180.67 25.0803 180.616 25.1878 180.561 25.2415C180.506 25.2953 180.396 25.349 180.286 25.349H177.485C177.375 25.349 177.265 25.2953 177.21 25.2415C177.155 25.1878 177.1 25.0803 177.1 24.9729V24.758C177.1 24.2207 176.935 23.7908 176.551 23.4685C176.166 23.0924 175.727 22.9312 175.178 22.9312C174.573 22.9312 174.134 23.0924 173.804 23.4685C173.475 23.8446 173.31 24.2744 173.31 24.758C173.31 25.1878 173.42 25.5102 173.695 25.8325C173.969 26.1012 174.244 26.3161 174.628 26.531C174.958 26.6922 175.507 26.9609 176.331 27.2832C177.265 27.6593 178.034 28.0354 178.693 28.3578C179.352 28.7339 179.901 29.2175 180.396 29.916C180.89 30.5607 181.11 31.4204 181.11 32.3875C181.11 33.8382 180.561 35.0202 179.517 35.8799C178.473 36.7396 177.045 37.1694 175.233 37.1694C173.365 37.1694 171.992 36.7396 170.893 35.8799Z" fill="#384249"/><path d="M33.957 45.3362C33.4626 45.3362 32.9134 45.175 32.3641 44.8526L21.0488 38.4589L21.8728 37.0619L33.2429 43.4557C33.6824 43.7243 34.0668 43.7781 34.2866 43.6169C34.5063 43.5094 34.6711 43.1333 34.6711 42.6497L34.726 18.9552C34.726 17.612 33.6824 15.8389 32.4739 15.1405L11.3815 3.32006C10.942 3.05141 10.5575 2.99768 10.3378 3.10514C10.1181 3.2126 9.95333 3.5887 9.95333 4.07227L9.8984 18.6866H8.25055L8.30548 4.07227C8.30548 2.99768 8.7449 2.13802 9.5139 1.70819C10.2829 1.27835 11.2716 1.33208 12.2054 1.86937L33.2979 13.7972C35.0006 14.7644 36.3738 17.0747 36.3738 19.009L36.3189 42.7035C36.3189 43.7781 35.8795 44.6377 35.1105 45.0676C34.726 45.2287 34.3964 45.3362 33.957 45.3362Z" fill="#12D89B"/><path d="M28.8486 48.5601C28.3543 48.5601 27.805 48.3989 27.2557 48.0765L21.0488 44.5841L21.8728 43.1872L28.0797 46.6796C28.5191 46.9482 28.9036 47.0019 29.1233 46.8407C29.343 46.7333 29.5078 46.3572 29.5078 45.8736L29.5627 22.2328C29.5627 20.8896 28.5191 19.1165 27.3107 18.418L6.2182 6.54392C5.8337 6.329 5.39427 6.22154 5.17456 6.38273C4.95485 6.49019 4.84499 6.86629 4.79006 7.34985V17.3435H3.14221V7.34985C3.14221 6.27527 3.58164 5.41561 4.35063 4.98577C5.11963 4.55594 6.10834 4.60967 7.04212 5.14696L28.1346 17.0748C29.8374 18.0419 31.2106 20.3523 31.2106 22.2865L31.1556 45.9811C31.1556 47.0557 30.7162 47.9153 29.9472 48.3452C29.6176 48.5063 29.2331 48.5601 28.8486 48.5601Z" fill="#339EFF"/><path d="M21.0488 44.6379L6.16326 36.2024C4.46049 35.2353 3.08728 32.9787 3.08728 31.0444L3.14221 17.3435H4.79006L4.73513 31.0444C4.73513 32.3877 5.77877 34.1607 6.98719 34.8055L21.8728 43.2409L21.0488 44.6379Z" fill="#339EFF"/><path d="M20.8291 22.2329L3.25206 12.293C2.04364 11.5945 1.05493 12.1318 1.05493 13.5287L1 33.2473C1 34.6443 1.98871 36.3099 3.19713 36.9546L20.7742 46.8945C21.9826 47.593 22.9713 47.0557 22.9713 45.6588L23.0262 25.9402C23.0262 24.5969 22.0375 22.9313 20.8291 22.2329ZM13.249 32.6026L10.942 33.516L9.40403 34.1607C9.23924 34.2145 8.9646 34.2145 8.79982 34.0533C8.30546 33.7846 7.81111 33.0861 7.81111 32.3877V28.6266V24.8656C7.81111 24.2208 8.30546 24.0596 8.79982 24.3283C9.01953 24.4358 9.23924 24.6507 9.40403 24.973L10.942 27.3371L13.249 30.8832C13.6884 31.6355 13.6884 32.3877 13.249 32.6026Z" fill="#007AFF"/></g></svg>
