<?xml version="1.0" encoding="utf-8"?>
<!-- Generator: Adobe Illustrator 26.0.1, SVG Export Plug-In . SVG Version: 6.00 Build 0)  -->
<svg version="1.1" id="Layer_1" xmlns="http://www.w3.org/2000/svg" xmlns:xlink="http://www.w3.org/1999/xlink" x="0px" y="0px"
	 viewBox="0 0 500 208.4" style="enable-background:new 0 0 500 208.4;" xml:space="preserve">
<style type="text/css">
	.st0{fill:#58595B;}
	.st1{fill:#2193D2;}
	.st2{fill:none;stroke:#2C2A29;stroke-width:0.1669;stroke-miterlimit:10;}
	.st3{fill:#2C2A29;}
	.st4{font-family:'MyriadPro-Regular';}
	.st5{font-size:13.3647px;}
</style>
<g>
	<path class="st0" d="M33.3,156.5v-1c0.6-0.2,1.1-0.4,1.3-0.8c0.2-0.2,0.4-0.6,0.4-1.1c0-0.2,0-0.4,0-0.6c0-0.2,0-0.4,0-0.6
		l-10.5-29.4c-0.4-1.3-1-2.1-1.3-2.5s-1.1-0.8-1.9-1v-1l12.2,0v1c-0.6,0.2-1.1,0.4-1.3,0.8c-0.2,0.2-0.4,0.6-0.4,1
		c0,0.2,0,0.2,0,0.6c0,0.2,0.2,0.4,0.2,0.8l7.5,22.5l7.3-22.5c0-0.2,0.2-0.2,0.2-0.6c0-0.2,0-0.4,0-0.6c0-0.6-0.2-1-0.4-1.1
		s-0.6-0.6-1.3-0.8v-1h13v1c-0.6,0.2-1.1,0.4-1.3,0.8c-0.2,0.2-0.4,0.6-0.4,1c0,0.2,0,0.2,0,0.6c0,0.2,0.2,0.4,0.2,0.8l7.3,22
		l7.3-22c0-0.2,0-0.2,0-0.6c0-0.2,0-0.4,0-0.6c0-0.6-0.2-1-0.4-1.1c-0.2-0.2-0.6-0.6-1.3-0.8v-1l11.7,0v1c-1,0.2-1.5,0.6-1.9,1.1
		c-0.4,0.4-0.8,1.3-1.3,2.5l-10.3,29.4c0,0.2,0,0.4-0.2,0.6c0,0.2,0,0.4,0,0.6c0,0.6,0.2,1,0.4,1.1c0.2,0.2,0.6,0.6,1.3,0.8v1H57.4
		v-1.1c0.8-0.2,1.1-0.4,1.3-0.8c0.2-0.2,0.4-0.6,0.4-1.1c0-0.2,0-0.2,0-0.4c0-0.2,0-0.4-0.2-0.6l-8.2-24.8l-8.2,24.8
		c0,0.2-0.2,0.4-0.2,0.6s0,0.4,0,0.6c0,0.6,0.2,1,0.4,1.1s0.8,0.6,1.3,0.8v1H33.3L33.3,156.5z"/>
	<path class="st0" d="M87,154.2l3.1-7.6l1,0.4c0,0,0,0.2-0.2,0.2c0,0.2,0,0.4,0,0.4c0,0.8,1.1,1.7,3.4,2.5c2.3,1,4.8,1.3,7.1,1.3
		c2.5,0,4.4-0.4,5.9-1.1c1.5-0.8,2.1-1.7,2.1-2.9c0-1.7-2.5-2.7-7.5-3.1c-1.9-0.2-3.4-0.2-4.6-0.4c-3.4-0.4-5.9-1.3-7.6-2.7
		c-1.7-1.5-2.5-3.4-2.5-6.1c0-3.2,1.3-5.7,3.8-7.6c2.5-1.9,5.9-2.9,9.9-2.9c2.9,0,5.7,0.6,8.6,1.7c0.6,0.2,0.8,0.2,1,0.2
		s0.8,0.2,1.7,0.8c0.8,0.6,1.5,0.8,1.9,0.8c0,0,0.2,0,0.4-0.2c0.2-0.2,0.4-0.2,0.6-0.4l0.8,0.4l-3.6,7.8l-1-0.6v-0.2v-0.2
		c0-1-1.1-1.9-3.2-2.9c-2.3-1-4.6-1.5-6.9-1.5c-2.1,0-3.8,0.4-5.2,1s-1.9,1.5-1.9,2.5c0,1.5,1.9,2.5,5.7,2.7
		c2.9,0.2,5.2,0.4,7.1,0.8c3.1,0.6,5.5,1.7,7.1,3.2c1.5,1.5,2.3,3.6,2.3,5.9c0,3.1-1.3,5.5-4,7.6c-2.7,1.9-6.3,3.1-10.7,3.1
		c-4.2,0-8-1-11.8-2.7c-0.8-0.4-1.1-0.6-1.3-0.6c-0.2,0-0.4,0-0.6,0.2c-0.2,0-0.2,0.2-0.2,0.4L87,154.2z"/>
	<path class="st0" d="M158.2,143.5l0.8-0.6l5,8.2l-0.8,0.6c-0.2-0.2-0.4-0.4-0.6-0.6c-0.2-0.2-0.2-0.2-0.4-0.2s-1,0.4-2.1,1.1
		c-5.3,3.4-10.5,5.2-15.5,5.2c-5.7,0-10.7-1.9-14.5-5.5c-3.8-3.8-5.7-8.4-5.7-13.9c0-5.7,1.9-10.3,5.9-14.1c3.8-3.6,9-5.5,15.3-5.5
		c3.2,0,6.5,0.6,9.7,1.7c3.2,1.1,5,1.7,5.2,1.7s0.6,0,1-0.2c0.2,0,0.6,0,1-0.2l0.8,0.6l-5,8.6l-0.8-0.6c0,0,0,0,0-0.2s0-0.2,0-0.2
		c0-1.1-1.3-2.1-3.8-3.2c-2.7-1.1-5.3-1.7-8.2-1.7c-3.8,0-7.1,1.3-9.6,3.6c-2.5,2.3-3.8,5.5-3.8,9.2c0,3.8,1.3,7.1,3.8,9.6
		c2.5,2.3,5.7,3.6,9.9,3.6c3.1,0,5.9-0.6,8.8-2.1c2.9-1.3,4.4-2.5,4.4-3.4c0-0.2,0-0.4,0-0.6C158.4,143.9,158.4,143.7,158.2,143.5z"
		/>
	<path class="st0" d="M196.1,128.6c0-0.8-0.2-1.1-0.4-1.5c-0.2-0.2-0.6-0.6-1.3-0.6v-1l10.3,0v1c-0.6,0.2-1.1,0.4-1.3,0.6
		s-0.4,0.8-0.4,1.5V145c0,4.4-1.1,7.6-3.4,9.4c-2.3,1.9-6.1,2.9-11.5,2.9c-5.3,0-9.2-1-11.3-2.9c-2.3-1.9-3.4-5-3.4-9.4v-16.4
		c0-0.8-0.2-1.1-0.4-1.5c-0.2-0.2-0.6-0.6-1.3-0.6v-1h10.1v1c-0.6,0.2-1,0.4-1.3,0.6c-0.2,0.2-0.4,0.8-0.4,1.5v15.1
		c0,2.7,0.6,4.8,1.9,5.9c1.1,1.1,3.2,1.7,6.1,1.7c2.7,0,4.8-0.6,6.1-1.9c1.1-1.1,1.9-3.2,1.9-6.1L196.1,128.6L196.1,128.6z"/>
	<path class="st0" d="M235.4,125.6c3.4,0,5.9,0.8,7.8,2.1c1.9,1.5,2.7,3.4,2.7,5.9c0,1.3-0.4,2.7-1,3.6s-1.7,1.9-3.1,2.7
		c1.7,1,3.1,1.9,3.8,3.2s1.1,2.7,1.1,4.4c0,2.9-1.1,5-3.2,6.7c-2.1,1.5-5.2,2.3-9,2.3h-19.5v-1c0.6-0.2,1.1-0.4,1.3-0.6
		s0.4-0.8,0.4-1.5v-25c0-0.8-0.2-1.1-0.4-1.5c-0.2-0.2-0.6-0.6-1.3-0.6v-1h20.3L235.4,125.6z M233.3,130.9L233.3,130.9h-9.6v6.3
		h10.3c1.7,0,3.1-0.2,3.8-0.8c1-0.6,1.3-1.3,1.3-2.5s-0.4-1.9-1.3-2.5C237.2,131.3,235.6,130.9,233.3,130.9z M232.8,142.7
		L232.8,142.7h-9v8.4h8.8c2.9,0,5-0.4,5.9-1c1.1-0.6,1.7-1.7,1.7-3.2c0-1.5-0.6-2.5-1.7-3.2C237.3,143.1,235.4,142.7,232.8,142.7z"
		/>
	<path class="st0" d="M283.4,125.6c0.8,0,1.1-0.2,1.3-0.4c0.2-0.2,0.4-0.6,0.6-1.3h1v9.6h-1c-0.2-0.8-0.4-1.1-0.6-1.3
		c-0.2-0.2-0.8-0.4-1.3-0.4h-17.6v6.1h10.9c0.8,0,1.1-0.2,1.3-0.4s0.4-0.6,0.6-1.3h1v8.8h-1c-0.2-0.6-0.4-1.1-0.6-1.3
		c-0.2-0.2-0.8-0.4-1.3-0.4l-10.9,0v7.1h18.3c0.8,0,1.1-0.2,1.3-0.4s0.4-0.8,0.6-1.3h1l0,9.7h-1c-0.2-0.8-0.4-1.1-0.6-1.3
		c-0.2-0.2-0.8-0.4-1.3-0.4h-26.9v-1c0.6-0.2,1.1-0.4,1.3-0.6c0.2-0.4,0.4-0.8,0.4-1.5v-25c0-0.8-0.2-1.1-0.4-1.5
		c-0.2-0.2-0.8-0.6-1.3-0.6v-1l26.2,0V125.6z"/>
	<path class="st1" d="M318.9,125.4c-0.8,0-1.1,0.2-1.3,0.4c-0.2,0.2-0.4,0.8-0.6,1.3h-1V117h0.8c0.2,0.8,0.4,1.1,0.6,1.3
		c0.2,0.2,0.8,0.4,1.3,0.4l29.6,0c0.8,0,1.1-0.2,1.3-0.4c0.2-0.2,0.4-0.8,0.6-1.3h1v10.3h-1c-0.2-0.8-0.4-1.1-0.6-1.3
		c-0.2-0.2-0.8-0.4-1.3-0.4h-10.9v28.1c0,0.8,0.2,1.1,0.4,1.5c0.2,0.2,0.6,0.4,1.3,0.6v1h-10.9v-1.1c0.6-0.2,1.1-0.4,1.3-0.6
		c0.2-0.2,0.4-0.8,0.4-1.5v-28.1H318.9z"/>
	<path class="st1" d="M384.5,125.6c0.8,0,1.1-0.2,1.3-0.4c0.2-0.2,0.4-0.6,0.6-1.3h1v9.6h-1c-0.2-0.8-0.4-1.1-0.6-1.3
		c-0.2-0.2-0.8-0.4-1.3-0.4h-17.6v6.1h10.9c0.8,0,1.1-0.2,1.3-0.4c0.2-0.2,0.4-0.6,0.6-1.3h1v8.8h-1c-0.2-0.6-0.4-1.1-0.6-1.3
		c-0.2-0.2-0.8-0.4-1.3-0.4h-10.9v7.1h18.3c0.8,0,1.1-0.2,1.3-0.4c0.2-0.2,0.4-0.8,0.6-1.3h1v9.7h-1c-0.2-0.8-0.4-1.1-0.6-1.3
		c-0.2-0.2-0.8-0.4-1.3-0.4l-26.9,0v-1c0.6-0.2,1.1-0.4,1.3-0.6c0.2-0.4,0.4-0.8,0.4-1.5l0-25c0-0.8-0.2-1.1-0.4-1.5
		c-0.2-0.2-0.8-0.6-1.3-0.6v-1h26.2V125.6z"/>
	<path class="st1" d="M424.6,135.3l-0.8-0.4v-0.2v-0.2c0-0.8-1-1.7-3.1-2.5c-2.1-1-4.2-1.3-6.5-1.3c-3.2,0-5.7,1-7.8,2.9
		c-1.9,1.9-2.9,4.4-2.9,7.5c0,3.1,1,5.5,2.9,7.5c1.9,1.9,4.6,2.7,7.8,2.7c2.5,0,5-0.6,7.1-1.7c2.3-1.1,3.4-1.9,3.4-2.7
		c0,0,0-0.2,0-0.4c0-0.2-0.2-0.4-0.2-0.6l0.8-0.4l4.4,6.9l-0.8,0.4c-0.2-0.2-0.4-0.4-0.6-0.4s-0.2,0-0.4,0c-0.2,0-1,0.4-1.9,1
		c-4.4,2.7-8.8,4.2-13,4.2c-5,0-9-1.5-12.2-4.6c-3.2-3.1-5-7.1-5-11.7c0-4.8,1.7-8.6,5-11.7c3.2-3.1,7.6-4.6,12.8-4.6
		c2.7,0,5.3,0.4,8.2,1.3c2.7,1,4.2,1.3,4.6,1.3c0.2,0,0.4,0,0.6,0s0.6-0.2,0.8-0.2l0.8,0.4L424.6,135.3z"/>
	<path class="st1" d="M445.4,153.4c0,0.8,0.2,1.1,0.4,1.5c0.2,0.2,0.6,0.6,1.3,0.6v1H437v-1c0.6-0.2,1-0.4,1.3-0.6
		c0.2-0.2,0.4-0.8,0.4-1.5v-25c0-0.8-0.2-1.1-0.4-1.5c-0.2-0.2-0.6-0.6-1.3-0.6v-1h10.1v1c-0.6,0.2-1.1,0.4-1.3,0.6
		c-0.2,0.4-0.4,0.8-0.4,1.5v8.4h16v-8.4c0-0.8-0.2-1.1-0.4-1.5c-0.2-0.2-0.6-0.6-1.3-0.6v-1l10.3,0v1c-0.6,0.2-1,0.4-1.3,0.6
		c-0.2,0.2-0.4,0.8-0.4,1.5l0,25c0,0.8,0.2,1.1,0.4,1.5c0.2,0.2,0.6,0.6,1.3,0.6v1h-10.3v-1c0.8-0.2,1.1-0.4,1.3-0.6
		c0.2-0.4,0.4-0.8,0.4-1.5v-10.5h-16V153.4z"/>
	<polygon class="st1" points="148.5,90.8 170.9,52 172,50.3 174.1,50.3 218.6,50.3 220.7,50.3 221.7,52 244.2,90.4 245.2,92.1 
		244.2,93.8 233.1,113.3 225.1,113.3 237.2,92.1 216.7,57.3 176,57.3 155.6,92.5 167.8,113.3 159.6,113.3 148.5,94.2 147.4,92.5 	
		"/>
	<polygon class="st1" points="15.1,90.8 37.7,52 38.6,50.3 40.6,50.3 85.3,50.3 87.4,50.3 88.3,52 110.9,90.4 111.8,92.1 
		110.9,93.8 99.8,113.3 91.8,113.3 103.8,92.1 83.4,57.3 42.7,57.3 22.2,92.5 34.4,113.3 26.2,113.3 15.1,94.2 14,92.5 	"/>
	<polygon class="st1" points="81.8,51.2 104.4,12.4 105.3,10.7 107.2,10.7 151.9,10.7 154,10.7 155,12.4 177.5,50.8 178.5,52.6 
		177.5,54.3 166.5,73.6 158.4,73.6 170.5,52.6 150,17.6 109.3,17.6 88.9,53 101.1,73.6 92.9,73.6 81.8,54.7 80.7,53 	"/>
	<polygon class="st1" points="81.8,54.5 104.4,93.3 105.3,95.2 107.2,95.2 151.9,95.2 154,95.2 155,93.3 177.5,55.1 178.5,53.1 
		177.5,51.4 166.5,32.1 158.4,32.1 170.5,53.1 150,88.1 109.3,88.1 88.9,52.8 101.1,32.1 92.9,32.1 81.8,51 80.7,52.8 	"/>
	<ellipse class="st2" cx="477.2" cy="114.9" rx="8.8" ry="8.6"/>
	<text transform="matrix(1 0 0 1 472.4371 119.7615)" class="st3 st4 st5">R</text>
	<g>
		<g>
			<path class="st0" d="M226.8,181.4v-13.3h2.9v13.3c0,5.4,2.3,7.1,5.2,7.1c3,0,5.4-1.7,5.4-7.1v-13.3h2.8v13.3
				c0,7.2-3.5,9.7-8.1,9.7C230.3,191.1,226.8,188.6,226.8,181.4z"/>
			<path class="st0" d="M248.8,174h2.3l0.2,1.9h0.1c1.5-1.3,3.4-2.3,5.3-2.3c4.3,0,6.6,3.4,6.6,8.5c0,5.7-3.4,9-7.2,9
				c-1.5,0-3.1-0.7-4.6-1.9l0.1,2.9v5.7h-2.8V174z M260.5,182.1c0-3.7-1.3-6.2-4.4-6.2c-1.4,0-2.8,0.8-4.5,2.3v8.8
				c1.5,1.3,3,1.7,4.1,1.7C258.4,188.7,260.5,186.2,260.5,182.1z"/>
			<path class="st0" d="M266,188.8l1.4-1.9c1.5,1.2,2.9,2,4.9,2c2.2,0,3.3-1.2,3.3-2.6c0-1.7-2-2.5-3.8-3.2c-2.3-0.9-5-2-5-4.8
				c0-2.7,2.1-4.7,5.8-4.7c2.1,0,3.9,0.9,5.2,1.9l-1.4,1.8c-1.2-0.9-2.3-1.5-3.8-1.5c-2.1,0-3.1,1.1-3.1,2.4c0,1.6,1.8,2.2,3.7,2.9
				c2.4,0.9,5.1,1.9,5.1,5.1c0,2.7-2.2,5-6.1,5C269.9,191.1,267.6,190.1,266,188.8z"/>
			<path class="st0" d="M282.3,166.2h2.8v16.6h0.1l7.1-8.8h3.1l-5.6,6.7l6.3,10H293l-4.9-8l-3.1,3.6v4.4h-2.8V166.2z"/>
			<path class="st0" d="M298.8,168.7c0-1.1,0.9-1.8,2-1.8c1.1,0,2,0.7,2,1.8c0,1.1-0.9,1.8-2,1.8
				C299.6,170.5,298.8,169.8,298.8,168.7z M299.3,174h2.8v16.7h-2.8V174z"/>
			<path class="st0" d="M307.7,187.3v-21.1h2.8v21.4c0,0.9,0.4,1.2,0.8,1.2c0.2,0,0.3,0,0.6-0.1l0.4,2.2c-0.4,0.1-0.9,0.3-1.6,0.3
				C308.6,191.1,307.7,189.8,307.7,187.3z"/>
			<path class="st0" d="M316.5,187.3v-21.1h2.8v21.4c0,0.9,0.4,1.2,0.8,1.2c0.2,0,0.3,0,0.6-0.1l0.4,2.2c-0.4,0.1-0.9,0.3-1.6,0.3
				C317.4,191.1,316.5,189.8,316.5,187.3z"/>
			<path class="st0" d="M324.8,168.7c0-1.1,0.9-1.8,2-1.8c1.1,0,2,0.7,2,1.8c0,1.1-0.9,1.8-2,1.8
				C325.6,170.5,324.8,169.8,324.8,168.7z M325.3,174h2.8v16.7h-2.8V174z"/>
			<path class="st0" d="M333.7,174h2.3l0.2,2.4h0.1c1.6-1.6,3.3-2.8,5.6-2.8c3.5,0,5.1,2.3,5.1,6.5v10.6h-2.8v-10.2
				c0-3.1-0.9-4.4-3.2-4.4c-1.7,0-2.9,0.9-4.6,2.6v12.1h-2.8V174z"/>
			<path class="st0" d="M351.3,193.9c0-1.4,0.9-2.8,2.5-3.8V190c-0.9-0.5-1.5-1.4-1.5-2.7c0-1.4,1-2.5,1.8-3.1V184
				c-1.1-0.9-2.2-2.5-2.2-4.5c0-3.7,2.9-6,6.3-6c0.9,0,1.8,0.2,2.4,0.4h5.8v2.2h-3.4c0.8,0.8,1.4,2,1.4,3.4c0,3.6-2.7,5.8-6.1,5.8
				c-0.8,0-1.7-0.2-2.5-0.6c-0.6,0.5-1.1,1.1-1.1,2c0,1.1,0.7,1.8,2.9,1.8h3.3c3.9,0,5.8,1.2,5.8,4c0,3.1-3.3,5.8-8.5,5.8
				C354.1,198.4,351.3,196.8,351.3,193.9z M363.9,193c0-1.5-1.2-2.1-3.4-2.1h-2.9c-0.6,0-1.4-0.1-2.2-0.2c-1.2,0.8-1.7,1.8-1.7,2.8
				c0,1.8,1.8,2.9,4.8,2.9C361.8,196.4,363.9,194.8,363.9,193z M361.7,179.5c0-2.4-1.6-3.9-3.6-3.9s-3.6,1.5-3.6,3.9
				c0,2.4,1.6,4,3.6,4S361.7,182,361.7,179.5z"/>
			<path class="st0" d="M377,168.1h6.7c4.6,0,7.8,1.6,7.8,5.5c0,2.2-1.2,4.2-3.3,4.9v0.1c2.7,0.5,4.6,2.3,4.6,5.4
				c0,4.4-3.5,6.6-8.5,6.6H377V168.1z M383.2,177.7c3.8,0,5.4-1.4,5.4-3.7c0-2.6-1.8-3.6-5.3-3.6h-3.5v7.3H383.2z M383.8,188.4
				c3.9,0,6.1-1.4,6.1-4.4c0-2.8-2.2-4.1-6.1-4.1h-3.9v8.5H383.8z"/>
			<path class="st0" d="M397,166.2h2.8v6.7l-0.1,3.4c1.6-1.5,3.3-2.8,5.5-2.8c3.5,0,5.1,2.3,5.1,6.5v10.6h-2.8v-10.2
				c0-3.1-0.9-4.4-3.2-4.4c-1.7,0-2.9,0.9-4.6,2.6v12.1H397V166.2z"/>
			<path class="st0" d="M414.7,186.4c0-3.6,3.1-5.5,10.3-6.2c0-2.2-0.7-4.2-3.5-4.2c-1.9,0-3.7,0.9-5,1.8l-1.1-1.9
				c1.5-1,3.9-2.2,6.6-2.2c4.1,0,5.8,2.7,5.8,6.9v10.3h-2.3l-0.2-2h-0.1c-1.6,1.3-3.5,2.4-5.5,2.4
				C416.8,191.1,414.7,189.4,414.7,186.4z M424.9,186.6V182c-5.6,0.7-7.5,2-7.5,4.2c0,1.9,1.3,2.7,2.9,2.7
				C422,188.8,423.3,188,424.9,186.6z"/>
			<path class="st0" d="M433,174h2.3l0.2,3h0.1c1.2-2.1,2.9-3.5,4.8-3.5c0.7,0,1.3,0.1,1.8,0.3l-0.5,2.5c-0.6-0.2-1-0.3-1.6-0.3
				c-1.4,0-3.1,1-4.2,3.8v10.7H433V174z"/>
			<path class="st0" d="M443.9,186.4c0-3.6,3.1-5.5,10.3-6.2c0-2.2-0.7-4.2-3.5-4.2c-1.9,0-3.7,0.9-5,1.8l-1.1-1.9
				c1.5-1,3.9-2.2,6.6-2.2c4.1,0,5.8,2.7,5.8,6.9v10.3h-2.3l-0.2-2h-0.1c-1.6,1.3-3.5,2.4-5.5,2.4
				C446,191.1,443.9,189.4,443.9,186.4z M454.2,186.6V182c-5.6,0.7-7.5,2-7.5,4.2c0,1.9,1.3,2.7,2.9,2.7
				C451.2,188.8,452.6,188,454.2,186.6z"/>
			<path class="st0" d="M462.8,185.5v-9.2h-2.5v-2.1l2.6-0.2l0.3-4.7h2.4v4.7h4.5v2.3h-4.5v9.3c0,2,0.7,3.2,2.6,3.2
				c0.6,0,1.4-0.2,1.9-0.4l0.5,2.1c-0.9,0.3-2.1,0.6-3.1,0.6C464,191.1,462.8,188.9,462.8,185.5z"/>
		</g>
	</g>
</g>
</svg>
